<svg width="25" height="25" viewBox="0 0 25 25" fill="none" xmlns="http://www.w3.org/2000/svg">
<g id="Vector">
<path d="M15.9643 0.00949951C15.2857 0.0809281 14.6429 0.545214 14.2857 1.22379C13.8214 2.15236 10.3929 9.04521 9.71429 9.72379C9.03571 10.4024 8.14286 10.7238 7.14286 10.7238V25.0095H19.6429C20.3929 25.0095 21.0357 24.5452 21.3214 23.9024C21.3214 23.9024 25 13.5095 25 12.5095C25 11.5095 24.2143 10.7238 23.2143 10.7238H17.8571C16.8571 10.7238 16.0714 9.83093 16.0714 8.93807C16.0714 8.04521 17.4643 3.29521 17.75 2.36664C18.0357 1.43807 17.5714 0.438071 16.6429 0.116642C16.3929 0.0452138 16.2143 -0.0262148 15.9643 0.00949951ZM0 10.7238V25.0095H3.57143V10.7238H0Z" fill="#F5F5F5"/>
<path d="M15.9643 0.00949951C15.2857 0.0809281 14.6429 0.545214 14.2857 1.22379C13.8214 2.15236 10.3929 9.04521 9.71429 9.72379C9.03571 10.4024 8.14286 10.7238 7.14286 10.7238V25.0095H19.6429C20.3929 25.0095 21.0357 24.5452 21.3214 23.9024C21.3214 23.9024 25 13.5095 25 12.5095C25 11.5095 24.2143 10.7238 23.2143 10.7238H17.8571C16.8571 10.7238 16.0714 9.83093 16.0714 8.93807C16.0714 8.04521 17.4643 3.29521 17.75 2.36664C18.0357 1.43807 17.5714 0.438071 16.6429 0.116642C16.3929 0.0452138 16.2143 -0.0262148 15.9643 0.00949951ZM0 10.7238V25.0095H3.57143V10.7238H0Z" fill="#F03C5C"/>
</g>
</svg>
